# xmcd
#
# Track frame offsets:
#	182
#	14272
#	27417
#	41827
#	55625
#	64472
#	78085
#	90435
#	101120
#	114255
#	125070
#	140832
#	150020
#	159822
#	169120
#	183352
#	195497
#	210250
#	223730
#	234735
#
# Disc length: 3313 seconds
#
# Revision: 0
# Processed by: cddbd v1.5.2PL0 Copyright (c) Steve Scherf et al.
# Submitted via: EZCDAudioConverter 9.1.1.1
#
DISCID=050cef14
DTITLE=Diverse - Life In The Country V4
DYEAR=1993
DGENRE=Country
TTITLE0=Jim Reeves - The Streets Of Laredo
TTITLE1=Frankie Laine - Bowie Knife
TTITLE2=Billy Ward - Stardust
TTITLE3=Debbie Reynolds - Tammy
TTITLE4=Lawrence Welk - Riders In The Sky
TTITLE5=Dean Martin - Rio Bravo
TTITLE6=Dean Martin - My Rifle, My Pony And Me
TTITLE7=John Wayne - Davy Crockett Speech
TTITLE8=Brothers Four - The Green Leaves Of Summer
TTITLE9=Mcguire Sisters - Delilah Jones
TTITLE10=Gordon Macrae - The Cowboy's Serenade
TTITLE11=Roye Lee - Barefoot Ballerina
TTITLE12=Connie Francis - Home Of The Range
TTITLE13=Almanac Singers - Don't Let The Stars Get In Your Eyes
TTITLE14=Rosemary Clooney - Brave Man
TTITLE15=Rosemary Clooney and Guy Michaell - Man and Woman
TTITLE16=Frank Sinatra - Boys and Girls Like You And Me
TTITLE17=Mitch Miller - Yellow Rose Of Texas
TTITLE18=Johnnie Ray - Song Of A Dreamer
TTITLE19=Bing Crosby - Riders In The Sky
EXTD=
EXTT0=
EXTT1=
EXTT2=
EXTT3=
EXTT4=
EXTT5=
EXTT6=
EXTT7=
EXTT8=
EXTT9=
EXTT10=
EXTT11=
EXTT12=
EXTT13=
EXTT14=
EXTT15=
EXTT16=
EXTT17=
EXTT18=
EXTT19=
PLAYORDER=
